<svg xmlns="http://www.w3.org/2000/svg" width="24" height="24" fill="none" viewBox="0 0 24 24">
    <path fill="currentColor" fill-rule="evenodd"
        d="m6.585 15.388-.101.113c-.286.322-.484.584-.484 1h12c0-.416-.198-.678-.484-1l-.101-.113c-.21-.233-.455-.505-.7-.887-.213-.33-.355-.551-.458-.79-.209-.482-.256-1.035-.4-2.71-.214-3.5-1.357-5.5-3.857-5.5s-3.643 2-3.857 5.5c-.144 1.675-.191 2.227-.4 2.71-.103.239-.245.46-.457.79-.246.382-.491.654-.701.887Zm10.511-2.312c-.083-.341-.131-.862-.241-2.148-.113-1.811-.469-3.392-1.237-4.544C14.8 5.157 13.57 4.5 12 4.5c-1.571 0-2.8.656-3.618 1.883-.768 1.152-1.124 2.733-1.237 4.544-.11 1.286-.158 1.807-.241 2.148-.062.253-.13.373-.46.884-.198.308-.373.504-.57.723-.074.081-.15.166-.232.261-.293.342-.642.822-.642 1.557a1 1 0 0 0 1 1h3a3 3 0 0 0 6 0h3a1 1 0 0 0 1-1c0-.735-.35-1.215-.642-1.557-.082-.095-.158-.18-.232-.261-.197-.22-.372-.415-.57-.723-.33-.511-.398-.63-.46-.884ZM14 17.5h-4a2 2 0 1 0 4 0Z"
        clip-rule="evenodd"></path>
</svg>